2021-04-23 13:18:16.668581+0800 ffdemo[37462:2579407] start ffdemo ---->>
2021-04-23 13:18:16.670397+0800 ffdemo[37462:2579407] start ffprobe
2021-04-23 13:18:16.670865+0800 ffdemo[37462:2579407] start task with arguments:
(
    "-v",
    quiet,
    "-print_format",
    json,
    "-show_format",
    "-show_streams",
    "/Users/jiangwenbin/Desktop/videoSample/SaMple.mkv"
)
>>>>>>>>>>>>>>>>>>>>>>>>>>>>>>>>>>>>>>>>>>>>>>>>>>>>>>>>>>>>>>>>>>>>>taskExc1 finish
2021-04-23 13:18:16.994425+0800 ffdemo[37462:2579407] finished ffprobe
2021-04-23 13:18:16.994762+0800 ffdemo[37462:2579407] start task with arguments:
(
    "-y",
    "-ss",
    "00:00:15",
    "-t",
    "00:00:20",
    "-i",
    "/Users/jiangwenbin/Desktop/videoSample/SaMple.mkv",
    "-vcodec",
    copy,
    "-acodec",
    copy,
    "/Users/jiangwenbin/Desktop/videoSample/output.mp4"
)
ffmpeg version 4.1.3 Copyright (c) 2000-2019 the FFmpeg developers
  built with Apple LLVM version 10.0.1 (clang-1001.0.46.4)
  configuration: --prefix=/usr/local/Cellar/ffmpeg/4.1.3_1 --enable-shared --enable-pthreads --enable-version3 --enable-hardcoded-tables --enable-avresample --cc=clang --host-cflags='-I/Library/Java/JavaVirtualMachines/adoptopenjdk-11.0.2.jdk/Contents/Home/include -I/Library/Java/JavaVirtualMachines/adoptopenjdk-11.0.2.jdk/Contents/Home/include/darwin' --host-ldflags= --enable-ffplay --enable-gnutls --enable-gpl --enable-libaom --enable-libbluray --enable-libmp3lame --enable-libopus --enable-librubberband --enable-libsnappy --enable-libtesseract --enable-libtheora --enable-libvorbis --enable-libvpx --enable-libx264 --enable-libx265 --enable-libxvid --enable-lzma --enable-libfontconfig --enable-libfreetype --enable-frei0r --enable-libass --enable-libopencore-amrnb --enable-libopencore-amrwb --enable-libopenjpeg --enable-librtmp --enable-libspeex --enable-videotoolbox --disable-libjack --disable-indev=jack --enable-libaom --enable-libsoxr
  libavutil      56. 22.100 / 56. 22.100
  libavcodec     58. 35.100 / 58. 35.100
  libavformat    58. 20.100 / 58. 20.100
  libavdevice    58.  5.100 / 58.  5.100
  libavfilter     7. 40.101 /  7. 40.101
  libavresample   4.  0.  0 /  4.  0.  0
  libswscale      5.  3.100 /  5.  3.100
  libswresample   3.  3.100 /  3.  3.100
  libpostproc    55.  3.100 / 55.  3.100
Input #0, matroska,webm, from '/Users/jiangwenbin/Desktop/videoSample/SaMple.mkv':
  Metadata:
    title           : Coco 2017 1080p HDRip x264 AC3-M2Tv
    encoder         : libebml v1.3.4 + libmatroska v1.4.5
    creation_time   : 2018-02-07T06:39:32.000000Z
  Duration: 00:01:00.64, start: 0.000000, bitrate: 3158 kb/s
    Stream #0:0(eng): Video: h264 (High), yuv420p(tv, bt709, progressive), 1920x800 [SAR 1:1 DAR 12:5], 25 fps, 25 tbr, 1k tbn, 50 tbc (default) (forced)
    Metadata:
      title           : LOKI
      BPS             : 2963698
      BPS-eng         : 2963698
      DURATION        : 00:01:00.640000000
      DURATION-eng    : 00:01:00.640000000
      NUMBER_OF_FRAMES: 1516
      NUMBER_OF_FRAMES-eng: 1516
      NUMBER_OF_BYTES : 22464833
      NUMBER_OF_BYTES-eng: 22464833
      _STATISTICS_WRITING_APP: mkvmerge v14.0.0 ('Flow') 32bit
      _STATISTICS_WRITING_APP-eng: mkvmerge v14.0.0 ('Flow') 32bit
      _STATISTICS_WRITING_DATE_UTC: 2018-02-07 06:39:32
      _STATISTICS_WRITING_DATE_UTC-eng: 2018-02-07 06:39:32
      _STATISTICS_TAGS: BPS DURATION NUMBER_OF_FRAMES NUMBER_OF_BYTES
      _STATISTICS_TAGS-eng: BPS DURATION NUMBER_OF_FRAMES NUMBER_OF_BYTES
    Stream #0:1(eng): Audio: ac3, 48000 Hz, stereo, fltp, 192 kb/s (default) (forced)
    Metadata:
      title           : LOKI
      BPS             : 192000
      BPS-eng         : 192000
      DURATION        : 00:01:00.640000000
      DURATION-eng    : 00:01:00.640000000
      NUMBER_OF_FRAMES: 1895
      NUMBER_OF_FRAMES-eng: 1895
      NUMBER_OF_BYTES : 1455360
      NUMBER_OF_BYTES-eng: 1455360
      _STATISTICS_WRITING_APP: mkvmerge v14.0.0 ('Flow') 32bit
      _STATISTICS_WRITING_APP-eng: mkvmerge v14.0.0 ('Flow') 32bit
      _STATISTICS_WRITING_DATE_UTC: 2018-02-07 06:39:32
      _STATISTICS_WRITING_DATE_UTC-eng: 2018-02-07 06:39:32
      _STATISTICS_TAGS: BPS DURATION NUMBER_OF_FRAMES NUMBER_OF_BYTES
      _STATISTICS_TAGS-eng: BPS DURATION NUMBER_OF_FRAMES NUMBER_OF_BYTES
[mp4 @ 0x105819400] track 1: codec frame size is not set
Output #0, mp4, to '/Users/jiangwenbin/Desktop/videoSample/output.mp4':
  Metadata:
    title           : Coco 2017 1080p HDRip x264 AC3-M2Tv
    encoder         : Lavf58.20.100
    Stream #0:0(eng): Video: h264 (High) (avc1 / 0x31637661), yuv420p(tv, bt709, progressive), 1920x800 [SAR 1:1 DAR 12:5], q=2-31, 25 fps, 25 tbr, 16k tbn, 1k tbc (default) (forced)
    Metadata:
      title           : LOKI
      BPS             : 2963698
      BPS-eng         : 2963698
      DURATION        : 00:01:00.640000000
      DURATION-eng    : 00:01:00.640000000
      NUMBER_OF_FRAMES: 1516
      NUMBER_OF_FRAMES-eng: 1516
      NUMBER_OF_BYTES : 22464833
      NUMBER_OF_BYTES-eng: 22464833
      _STATISTICS_WRITING_APP: mkvmerge v14.0.0 ('Flow') 32bit
      _STATISTICS_WRITING_APP-eng: mkvmerge v14.0.0 ('Flow') 32bit
      _STATISTICS_WRITING_DATE_UTC: 2018-02-07 06:39:32
      _STATISTICS_WRITING_DATE_UTC-eng: 2018-02-07 06:39:32
      _STATISTICS_TAGS: BPS DURATION NUMBER_OF_FRAMES NUMBER_OF_BYTES
      _STATISTICS_TAGS-eng: BPS DURATION NUMBER_OF_FRAMES NUMBER_OF_BYTES
    Stream #0:1(eng): Audio: ac3 (ac-3 / 0x332D6361), 48000 Hz, stereo, fltp, 192 kb/s (default) (forced)
    Metadata:
      title           : LOKI
      BPS             : 192000
      BPS-eng         : 192000
      DURATION        : 00:01:00.640000000
      DURATION-eng    : 00:01:00.640000000
      NUMBER_OF_FRAMES: 1895
      NUMBER_OF_FRAMES-eng: 1895
      NUMBER_OF_BYTES : 1455360
      NUMBER_OF_BYTES-eng: 1455360
      _STATISTICS_WRITING_APP: mkvmerge v14.0.0 ('Flow') 32bit
      _STATISTICS_WRITING_APP-eng: mkvmerge v14.0.0 ('Flow') 32bit
      _STATISTICS_WRITING_DATE_UTC: 2018-02-07 06:39:32
      _STATISTICS_WRITING_DATE_UTC-eng: 2018-02-07 06:39:32
      _STATISTICS_TAGS: BPS DURATION NUMBER_OF_FRAMES NUMBER_OF_BYTES
      _STATISTICS_TAGS-eng: BPS DURATION NUMBER_OF_FRAMES NUMBER_OF_BYTES
Stream mapping:
  Stream #0:0 -> #0:0 (copy)
  Stream #0:1 -> #0:1 (copy)
Press [q] to stop, [?] for help
frame=  536 fps=0.0 q=-1.0 Lsize=    9361kB time=00:00:19.97 bitrate=3838.9kbits/s speed=1.02e+03x    
video:8846kB audio:500kB subtitle:0kB other streams:0kB global headers:0kB muxing overhead: 0.158777%
taskExc1 finish
2021-04-23 13:18:17.258127+0800 ffdemo[37462:2579407] Finished ffdemo --------->
Program ended with exit code: 0